<svg width="25" height="25" viewBox="0 0 25 25" fill="none" xmlns="http://www.w3.org/2000/svg">
<path d="M23.6882 7.34384C23.5621 6.85039 23.3675 6.37703 23.1101 5.93759C22.8628 5.48045 22.5466 5.06411 22.1726 4.70322C21.6303 4.1628 20.9882 3.73295 20.2819 3.43759C18.8603 2.85414 17.2661 2.85414 15.8444 3.43759C15.1769 3.72015 14.5636 4.11669 14.0319 4.60947L13.9538 4.70322L12.9382 5.71884L11.9226 4.70322L11.8444 4.60947C11.3128 4.11669 10.6995 3.72015 10.0319 3.43759C8.6103 2.85414 7.01606 2.85414 5.59443 3.43759C4.88816 3.73295 4.24604 4.1628 3.70381 4.70322C2.96219 5.42483 2.4372 6.33949 2.18818 7.34384C2.05571 7.85387 1.99264 8.37945 2.00068 8.90634C2.00068 9.40165 2.06318 9.8954 2.18818 10.3751C2.31917 10.8595 2.50803 11.3264 2.75068 11.7657C3.01274 12.2173 3.33321 12.6323 3.70381 13.0001L12.9382 22.2345L22.1726 13.0001C22.5429 12.636 22.8601 12.2188 23.1101 11.7657C23.6175 10.8987 23.882 9.91094 23.8757 8.90634C23.8838 8.37944 23.8207 7.85386 23.6882 7.34384V7.34384ZM22.1257 9.89072C21.9385 10.6047 21.5667 11.2567 21.0476 11.7813L12.9069 19.9063L4.76631 11.7813C4.50103 11.5142 4.27008 11.215 4.07881 10.8907C3.89882 10.5699 3.75722 10.229 3.65693 9.87509C3.57687 9.52121 3.53497 9.15977 3.53193 8.79697C3.53405 8.42378 3.57596 8.05189 3.65693 7.68759C3.75428 7.33265 3.89602 6.99141 4.07881 6.67197C4.26631 6.34384 4.49756 6.04697 4.76631 5.78134C5.16771 5.38532 5.63927 5.06741 6.15693 4.84384C7.20008 4.42653 8.36379 4.42653 9.40693 4.84384C9.92256 5.0579 10.3882 5.37197 10.7819 5.76572L12.9069 7.90634L15.0319 5.76572C15.4254 5.37127 15.8926 5.05803 16.4069 4.84384C17.4501 4.42653 18.6138 4.42653 19.6569 4.84384C20.1741 5.06728 20.646 5.38603 21.0476 5.78134C21.3194 6.03915 21.5476 6.33915 21.7194 6.67197C22.0813 7.31019 22.2699 8.03203 22.2663 8.76572C22.2876 9.14325 22.256 9.52191 22.1726 9.89072H22.1257V9.89072Z" fill="#574AE8"/>
<circle cx="7.5" cy="8.5" r="4.5" fill="#574AE8"/>
<circle cx="7.5" cy="8.5" r="4.5" fill="#574AE8"/>
<circle cx="7.5" cy="8.5" r="4.5" fill="#574AE8"/>
<circle cx="18.5" cy="8.5" r="4.5" fill="#574AE8"/>
<circle cx="18.5" cy="8.5" r="4.5" fill="#574AE8"/>
<circle cx="18.5" cy="8.5" r="4.5" fill="#574AE8"/>
<circle cx="9.5" cy="10.5" r="4.5" fill="#574AE8"/>
<circle cx="9.5" cy="10.5" r="4.5" fill="#574AE8"/>
<circle cx="9.5" cy="10.5" r="4.5" fill="#574AE8"/>
<circle cx="11.5" cy="14.5" r="4.5" fill="#574AE8"/>
<circle cx="11.5" cy="14.5" r="4.5" fill="#574AE8"/>
<circle cx="11.5" cy="14.5" r="4.5" fill="#574AE8"/>
<circle cx="12.5" cy="15.5" r="4.5" fill="#574AE8"/>
<circle cx="12.5" cy="15.5" r="4.5" fill="#574AE8"/>
<circle cx="12.5" cy="15.5" r="4.5" fill="#574AE8"/>
<circle cx="15.5" cy="10.5" r="4.5" fill="#574AE8"/>
<circle cx="15.5" cy="10.5" r="4.5" fill="#574AE8"/>
<circle cx="15.5" cy="10.5" r="4.5" fill="#574AE8"/>
<circle cx="16.5" cy="11.5" r="4.5" fill="#574AE8"/>
<circle cx="16.5" cy="11.5" r="4.5" fill="#574AE8"/>
<circle cx="16.5" cy="11.5" r="4.5" fill="#574AE8"/>
</svg>
